# xmcd
#
# Track frame offsets:
#	150
#	13127
#	28411
#	41879
#	60456
#	77870
#	96194
#	123306
#
# Disc length: 3676 seconds
#
# Revision: 1
# Processed by: cddbd v1.5.2PL0 Copyright (c) Steve Scherf et al.
# Submitted via: audiograbber 1.83.01
#
DISCID=690e5a08
DTITLE=Marc Ekins - Just Like That
DYEAR=1999
DGENRE=Country
TTITLE0=Just Like That
TTITLE1=Pretty Pretty Please
TTITLE2=So Far
TTITLE3=Innocence Lost
TTITLE4=Move This Mountain
TTITLE5=Doin' Time
TTITLE6=Pretty Pretty Please (Club Mix)
TTITLE7=Data Track
EXTD=
EXTT0=
EXTT1=
EXTT2=
EXTT3=
EXTT4=
EXTT5=
EXTT6=
EXTT7=
PLAYORDER=
